<mxfile host="65bd71144e">
    <diagram id="On-E_GovfZpQW6HnQ0gj" name="Основная блок-схема">
        <mxGraphModel dx="1033" dy="751" grid="1" gridSize="10" guides="1" tooltips="1" connect="1" arrows="1" fold="1" page="1" pageScale="1" pageWidth="827" pageHeight="1169" math="0" shadow="0">
            <root>
                <mxCell id="0"/>
                <mxCell id="1" parent="0"/>
                <mxCell id="6" value="" style="edgeStyle=none;html=1;" parent="1" target="5" edge="1">
                    <mxGeometry relative="1" as="geometry">
                        <mxPoint x="200" y="100" as="sourcePoint"/>
                    </mxGeometry>
                </mxCell>
                <mxCell id="jUQIZp3L-l2yJeXxs--b-46" style="edgeStyle=none;html=1;entryX=0.5;entryY=0;entryDx=0;entryDy=0;fontSize=15;" edge="1" parent="1" source="5" target="8">
                    <mxGeometry relative="1" as="geometry"/>
                </mxCell>
                <mxCell id="5" value="&lt;font style=&quot;font-size: 14px&quot;&gt;string [ ] array&lt;/font&gt;" style="shape=parallelogram;perimeter=parallelogramPerimeter;whiteSpace=wrap;html=1;fixedSize=1;" parent="1" vertex="1">
                    <mxGeometry x="105" y="120" width="190" height="50" as="geometry"/>
                </mxCell>
                <mxCell id="7" value="&lt;font style=&quot;font-size: 14px&quot;&gt;Начало&lt;/font&gt;" style="rounded=1;whiteSpace=wrap;html=1;" parent="1" vertex="1">
                    <mxGeometry x="140" y="30" width="120" height="60" as="geometry"/>
                </mxCell>
                <mxCell id="12" value="" style="edgeStyle=none;html=1;fontSize=14;" parent="1" source="8" target="11" edge="1">
                    <mxGeometry relative="1" as="geometry"/>
                </mxCell>
                <mxCell id="8" value="&lt;font style=&quot;font-size: 14px&quot;&gt;string [ ] newArray = new string [array.Lenght]&amp;nbsp;&lt;br&gt;k = 0&lt;br&gt;i = 0&lt;br&gt;&lt;/font&gt;" style="whiteSpace=wrap;html=1;" parent="1" vertex="1">
                    <mxGeometry x="46.56999999999999" y="210" width="306.87" height="60" as="geometry"/>
                </mxCell>
                <mxCell id="15" value="" style="edgeStyle=none;html=1;fontSize=14;" parent="1" source="11" target="14" edge="1">
                    <mxGeometry relative="1" as="geometry"/>
                </mxCell>
                <mxCell id="28" value="" style="edgeStyle=none;html=1;fontSize=14;" parent="1" source="11" target="27" edge="1">
                    <mxGeometry relative="1" as="geometry"/>
                </mxCell>
                <mxCell id="11" value="&lt;font style=&quot;font-size: 14px&quot;&gt;i &amp;lt; array.Lenght&lt;/font&gt;" style="rhombus;whiteSpace=wrap;html=1;" parent="1" vertex="1">
                    <mxGeometry x="110" y="310" width="180" height="80" as="geometry"/>
                </mxCell>
                <mxCell id="20" value="" style="edgeStyle=none;html=1;fontSize=14;" parent="1" source="14" target="19" edge="1">
                    <mxGeometry relative="1" as="geometry"/>
                </mxCell>
                <mxCell id="jUQIZp3L-l2yJeXxs--b-48" style="edgeStyle=none;html=1;fontSize=15;entryX=1;entryY=0.5;entryDx=0;entryDy=0;" edge="1" parent="1" source="14" target="22">
                    <mxGeometry relative="1" as="geometry">
                        <mxPoint x="340" y="690" as="targetPoint"/>
                        <Array as="points">
                            <mxPoint x="330" y="465"/>
                            <mxPoint x="330" y="650"/>
                            <mxPoint x="330" y="660"/>
                        </Array>
                    </mxGeometry>
                </mxCell>
                <mxCell id="14" value="&lt;font style=&quot;font-size: 14px&quot;&gt;array [ i ].Lenght &amp;lt;= 3&lt;br&gt;&lt;/font&gt;" style="rhombus;whiteSpace=wrap;html=1;" parent="1" vertex="1">
                    <mxGeometry x="85.63" y="420" width="228.75" height="90" as="geometry"/>
                </mxCell>
                <mxCell id="16" value="Yes" style="text;html=1;align=center;verticalAlign=middle;resizable=0;points=[];autosize=1;strokeColor=none;fillColor=none;fontSize=14;" parent="1" vertex="1">
                    <mxGeometry x="200" y="400" width="40" height="20" as="geometry"/>
                </mxCell>
                <mxCell id="18" value="Yes" style="text;html=1;align=center;verticalAlign=middle;resizable=0;points=[];autosize=1;strokeColor=none;fillColor=none;fontSize=14;" parent="1" vertex="1">
                    <mxGeometry x="200" y="510" width="40" height="20" as="geometry"/>
                </mxCell>
                <mxCell id="jUQIZp3L-l2yJeXxs--b-50" style="edgeStyle=none;html=1;entryX=0.5;entryY=0;entryDx=0;entryDy=0;fontSize=15;" edge="1" parent="1" source="19" target="22">
                    <mxGeometry relative="1" as="geometry"/>
                </mxCell>
                <mxCell id="19" value="&lt;span style=&quot;font-size: 14px&quot;&gt;newArray [ k ] = array [ i ]&lt;/span&gt;&lt;br style=&quot;font-size: 14px&quot;&gt;&lt;span style=&quot;font-size: 14px&quot;&gt;k ++&lt;/span&gt;" style="whiteSpace=wrap;html=1;" parent="1" vertex="1">
                    <mxGeometry x="112.5" y="550" width="177.5" height="50" as="geometry"/>
                </mxCell>
                <mxCell id="25" style="edgeStyle=none;html=1;fontSize=14;" parent="1" edge="1">
                    <mxGeometry relative="1" as="geometry">
                        <mxPoint x="200" y="285" as="targetPoint"/>
                        <Array as="points">
                            <mxPoint x="80" y="660"/>
                            <mxPoint x="60" y="660"/>
                            <mxPoint x="60" y="625"/>
                            <mxPoint x="60" y="285"/>
                        </Array>
                        <mxPoint x="150" y="660" as="sourcePoint"/>
                    </mxGeometry>
                </mxCell>
                <mxCell id="jUQIZp3L-l2yJeXxs--b-49" style="edgeStyle=none;html=1;fontSize=15;" edge="1" parent="1" source="22">
                    <mxGeometry relative="1" as="geometry">
                        <mxPoint x="140" y="660" as="targetPoint"/>
                    </mxGeometry>
                </mxCell>
                <mxCell id="22" value="&lt;font style=&quot;font-size: 14px&quot;&gt;i++&lt;/font&gt;" style="whiteSpace=wrap;html=1;" parent="1" vertex="1">
                    <mxGeometry x="141.25" y="640" width="120" height="40" as="geometry"/>
                </mxCell>
                <mxCell id="24" value="No" style="text;html=1;align=center;verticalAlign=middle;resizable=0;points=[];autosize=1;strokeColor=none;fillColor=none;fontSize=14;" parent="1" vertex="1">
                    <mxGeometry x="290" y="437.5" width="30" height="20" as="geometry"/>
                </mxCell>
                <mxCell id="26" value="No" style="text;html=1;align=center;verticalAlign=middle;resizable=0;points=[];autosize=1;strokeColor=none;fillColor=none;fontSize=14;" parent="1" vertex="1">
                    <mxGeometry x="295" y="325" width="30" height="20" as="geometry"/>
                </mxCell>
                <mxCell id="31" value="" style="edgeStyle=none;html=1;fontSize=14;" parent="1" source="27" target="30" edge="1">
                    <mxGeometry relative="1" as="geometry"/>
                </mxCell>
                <mxCell id="27" value="&lt;span style=&quot;font-size: 14px&quot;&gt;string [ ] newArray3 = new string [ k ]&amp;nbsp;&lt;/span&gt;&lt;br style=&quot;font-size: 14px&quot;&gt;&lt;span style=&quot;font-size: 14px&quot;&gt;i = 0&lt;/span&gt;" style="whiteSpace=wrap;html=1;" parent="1" vertex="1">
                    <mxGeometry x="375" y="325" width="240" height="50" as="geometry"/>
                </mxCell>
                <mxCell id="35" value="" style="edgeStyle=none;html=1;fontSize=14;" parent="1" source="30" target="34" edge="1">
                    <mxGeometry relative="1" as="geometry"/>
                </mxCell>
                <mxCell id="40" value="" style="edgeStyle=none;html=1;fontSize=14;" parent="1" source="30" target="39" edge="1">
                    <mxGeometry relative="1" as="geometry"/>
                </mxCell>
                <mxCell id="30" value="&lt;font style=&quot;font-size: 14px&quot;&gt;i &amp;lt; k&lt;/font&gt;" style="rhombus;whiteSpace=wrap;html=1;" parent="1" vertex="1">
                    <mxGeometry x="419.37" y="405" width="151.25" height="85" as="geometry"/>
                </mxCell>
                <mxCell id="38" style="edgeStyle=none;html=1;exitX=0;exitY=0.5;exitDx=0;exitDy=0;fontSize=14;" parent="1" source="34" edge="1">
                    <mxGeometry relative="1" as="geometry">
                        <mxPoint x="495" y="390" as="targetPoint"/>
                        <Array as="points">
                            <mxPoint x="360" y="545"/>
                            <mxPoint x="360" y="390"/>
                        </Array>
                    </mxGeometry>
                </mxCell>
                <mxCell id="34" value="&lt;span style=&quot;font-size: 14px&quot;&gt;newArray3 [ i ] = newArray [ i ]&lt;br&gt;i++&lt;br&gt;&lt;/span&gt;" style="whiteSpace=wrap;html=1;" parent="1" vertex="1">
                    <mxGeometry x="393.75" y="520" width="202.5" height="50" as="geometry"/>
                </mxCell>
                <mxCell id="36" value="Yes" style="text;html=1;align=center;verticalAlign=middle;resizable=0;points=[];autosize=1;strokeColor=none;fillColor=none;fontSize=14;" parent="1" vertex="1">
                    <mxGeometry x="510" y="490" width="40" height="20" as="geometry"/>
                </mxCell>
                <mxCell id="46" value="" style="edgeStyle=none;html=1;fontSize=14;" parent="1" source="39" target="45" edge="1">
                    <mxGeometry relative="1" as="geometry"/>
                </mxCell>
                <mxCell id="39" value="&lt;span style=&quot;font-size: 14px&quot;&gt;array&lt;/span&gt;&lt;span style=&quot;font-size: 14px&quot;&gt;&lt;br&gt;newArray3&lt;/span&gt;" style="shape=document;whiteSpace=wrap;html=1;boundedLbl=1;" parent="1" vertex="1">
                    <mxGeometry x="620" y="405" width="120" height="80" as="geometry"/>
                </mxCell>
                <mxCell id="41" value="No" style="text;html=1;align=center;verticalAlign=middle;resizable=0;points=[];autosize=1;strokeColor=none;fillColor=none;fontSize=14;" parent="1" vertex="1">
                    <mxGeometry x="560" y="417.5" width="30" height="20" as="geometry"/>
                </mxCell>
                <mxCell id="45" value="Конец" style="rounded=1;whiteSpace=wrap;html=1;" parent="1" vertex="1">
                    <mxGeometry x="620.005" y="510" width="120" height="60" as="geometry"/>
                </mxCell>
                <mxCell id="XWMxBxPtQG5kfgCbhywX-46" value="&lt;font style=&quot;font-size: 15px&quot;&gt;Основная блок-схема&lt;/font&gt;" style="text;html=1;align=center;verticalAlign=middle;resizable=0;points=[];autosize=1;strokeColor=none;fillColor=none;strokeWidth=2;" vertex="1" parent="1">
                    <mxGeometry x="345" y="20" width="170" height="20" as="geometry"/>
                </mxCell>
            </root>
        </mxGraphModel>
    </diagram>
</mxfile>